<svg width="35" height="58" viewBox="0 0 35 58" fill="none" xmlns="http://www.w3.org/2000/svg">
<path d="M15.4328 57.2V0.799997H20.3528V57.2H15.4328ZM17.2928 50.6C14.0128 50.6 10.8728 50.14 7.87281 49.22C4.87281 48.26 2.49281 47.04 0.732813 45.56L3.43281 39.5C5.11281 40.82 7.19281 41.92 9.67281 42.8C12.1528 43.68 14.6928 44.12 17.2928 44.12C19.4928 44.12 21.2728 43.88 22.6328 43.4C23.9928 42.92 24.9928 42.28 25.6328 41.48C26.2728 40.64 26.5928 39.7 26.5928 38.66C26.5928 37.38 26.1328 36.36 25.2128 35.6C24.2928 34.8 23.0928 34.18 21.6128 33.74C20.1728 33.26 18.5528 32.82 16.7528 32.42C14.9928 32.02 13.2128 31.56 11.4128 31.04C9.65281 30.48 8.03281 29.78 6.55281 28.94C5.11281 28.06 3.93281 26.9 3.01281 25.46C2.09281 24.02 1.63281 22.18 1.63281 19.94C1.63281 17.66 2.23281 15.58 3.43281 13.7C4.67281 11.78 6.53281 10.26 9.01281 9.14C11.5328 7.98 14.7128 7.4 18.5528 7.4C21.0728 7.4 23.5728 7.72 26.0528 8.36C28.5328 9 30.6928 9.92 32.5328 11.12L30.0728 17.18C28.1928 16.06 26.2528 15.24 24.2528 14.72C22.2528 14.16 20.3328 13.88 18.4928 13.88C16.3328 13.88 14.5728 14.14 13.2128 14.66C11.8928 15.18 10.9128 15.86 10.2728 16.7C9.67281 17.54 9.37281 18.5 9.37281 19.58C9.37281 20.86 9.81281 21.9 10.6928 22.7C11.6128 23.46 12.7928 24.06 14.2328 24.5C15.7128 24.94 17.3528 25.38 19.1528 25.82C20.9528 26.22 22.7328 26.68 24.4928 27.2C26.2928 27.72 27.9128 28.4 29.3528 29.24C30.8328 30.08 32.0128 31.22 32.8928 32.66C33.8128 34.1 34.2728 35.92 34.2728 38.12C34.2728 40.36 33.6528 42.44 32.4128 44.36C31.2128 46.24 29.3528 47.76 26.8328 48.92C24.3128 50.04 21.1328 50.6 17.2928 50.6Z" fill="#FFEEEE"/>
</svg>
